<?xml version="1.0" standalone="no"?>
<!DOCTYPE svg PUBLIC "-//W3C//DTD SVG 20010904//EN"
 "http://www.w3.org/TR/2001/REC-SVG-20010904/DTD/svg10.dtd">
<svg version="1.0" xmlns="http://www.w3.org/2000/svg"
 width="300.000000pt" height="300.000000pt" viewBox="0 0 300.000000 300.000000"
 preserveAspectRatio="xMidYMid meet">
<metadata>
Created by potrace 1.11, written by Peter Selinger 2001-2013
</metadata>
<g transform="translate(0.000000,300.000000) scale(0.100000,-0.100000)"
fill="#000000" stroke="none">
<path d="M593 2033 c-10 -4 -13 -89 -13 -379 l0 -375 48 3 47 3 3 168 2 167
53 0 c58 0 105 -23 133 -65 9 -14 38 -80 64 -148 l48 -122 51 -3 c38 -2 51 0
51 10 0 15 -83 225 -108 273 -8 16 -29 43 -46 59 -19 18 -26 31 -19 33 25 9
77 49 96 74 25 35 34 83 27 142 -11 80 -68 136 -161 156 -50 11 -253 14 -276
4z m277 -98 c35 -18 60 -62 60 -105 0 -82 -66 -129 -182 -130 l-68 0 0 131 0
132 80 -6 c44 -4 93 -13 110 -22z"/>
<path d="M1302 1835 c-67 -21 -92 -41 -92 -75 0 -16 4 -31 9 -34 5 -3 33 5 63
19 57 27 152 34 189 15 27 -15 49 -63 49 -108 l0 -39 -92 -5 c-141 -8 -217
-50 -239 -131 -30 -114 51 -207 181 -207 37 0 113 31 142 57 17 15 18 14 18
-16 0 -32 1 -32 43 -29 l42 3 0 210 c0 144 -4 221 -13 246 -15 44 -55 82 -101
98 -45 15 -145 13 -199 -4z m218 -353 c0 -51 -4 -62 -27 -84 -40 -37 -66 -48
-112 -48 -53 0 -69 7 -86 41 -21 39 -19 72 6 103 25 32 65 44 152 45 l67 1 0
-58z"/>
<path d="M1853 1829 c-54 -27 -85 -75 -85 -134 0 -74 25 -104 129 -155 50 -25
100 -54 112 -64 29 -26 27 -71 -4 -101 -34 -35 -119 -35 -192 -1 -56 26 -63
25 -63 -11 0 -43 18 -62 77 -79 101 -29 220 -4 266 57 25 34 37 94 26 131 -17
59 -39 79 -144 128 -83 39 -106 54 -110 73 -12 47 -2 71 39 91 38 19 42 19
100 2 91 -25 91 -25 94 12 3 30 0 34 -40 52 -59 27 -150 26 -205 -1z"/>
</g>
</svg>
